<?xml version="1.0" encoding="utf-8"?>
<!-- Generator: Adobe Illustrator 18.1.1, SVG Export Plug-In . SVG Version: 6.00 Build 0)  -->
<svg version="1.1" id="Layer_1" xmlns="http://www.w3.org/2000/svg" xmlns:xlink="http://www.w3.org/1999/xlink" x="0px" y="0px"
	 viewBox="0 0 30 30" enable-background="new 0 0 30 30" xml:space="preserve">
<g>
	<path fill="#BBBBBB" d="M16.4,2.4h-0.6c-0.3,0-0.6-0.3-0.6-0.6v0c0-0.8-0.7-1.5-1.5-1.5h0c-0.8,0-1.5,0.7-1.5,1.5v0
		c0,0.3-0.3,0.6-0.6,0.6h-0.6c-0.7,0-1.3,0.6-1.3,1.3v0c0,0.7,0.6,1.3,1.3,1.3h5.5c0.7,0,1.3-0.6,1.3-1.3v0
		C17.7,2.9,17.1,2.4,16.4,2.4z M13.7,2.4c-0.3,0-0.6-0.3-0.6-0.6c0-0.3,0.3-0.6,0.6-0.6c0.3,0,0.6,0.3,0.6,0.6S14,2.4,13.7,2.4z
		 M16.5,26.8H5.9c-0.9,0-1.7-0.8-1.7-1.7V4.9C4.2,4,5,3.2,5.5,3.2h3.4c0,0.1,0,0.3,0,0.4c0,1.2,0.9,2.1,2.1,2.1h5.5
		c1.2,0,2.1-0.9,2.1-2.1c0-0.1,0-0.3,0-0.4h2.6c1.4,0,2.1,0.8,2.1,1.7v12.7c-0.1,0-0.3,0-0.4,0c-0.6,0-1.1,0.1-1.7,0.2V7.8H6.3v16.8
		H16C16.1,25.4,16.2,26.1,16.5,26.8z M22.7,18.8c-3,0-5.5,2.5-5.5,5.5s2.5,5.5,5.5,5.5s5.5-2.5,5.5-5.5S25.8,18.8,22.7,18.8z
		 M26.3,23.1L23,26.9c-0.2,0.2-0.4,0.3-0.6,0.3c-0.2,0-0.4-0.1-0.5-0.2l-2.1-1.7c-0.4-0.3-0.4-0.8-0.1-1.2c0.3-0.4,0.8-0.4,1.2-0.1
		l1.5,1.2l2.8-3.2c0.3-0.3,0.8-0.4,1.2-0.1C26.6,22.3,26.6,22.8,26.3,23.1z M19,15h-6.7c-0.2,0-0.4-0.2-0.4-0.4v-0.4
		c0-0.2,0.2-0.4,0.4-0.4H19c0.2,0,0.4,0.2,0.4,0.4v0.4C19.4,14.8,19.2,15,19,15z M19,11.2h-6.7c-0.2,0-0.4-0.2-0.4-0.4v-0.4
		c0-0.2,0.2-0.4,0.4-0.4H19c0.2,0,0.4,0.2,0.4,0.4v0.4C19.4,11,19.2,11.2,19,11.2z M16.9,18.4h-4.6c-0.2,0-0.4-0.2-0.4-0.4v-0.4
		c0-0.2,0.2-0.4,0.4-0.4h4.6c0.2,0,0.4,0.2,0.4,0.4v0.4C17.3,18.2,17.1,18.4,16.9,18.4z M16,22.2h-3.8c-0.2,0-0.4-0.2-0.4-0.4v-0.4
		c0-0.2,0.2-0.4,0.4-0.4H16c0.2,0,0.4,0.2,0.4,0.4v0.4C16.4,22,16.2,22.2,16,22.2z M11,9.7l-1.6,1.7c-0.1,0.1-0.2,0.1-0.3,0.1
		c-0.1,0-0.2,0-0.2-0.1l-1-0.8c-0.2-0.1-0.2-0.4-0.1-0.5C8,10,8.3,9.9,8.4,10.1l0.7,0.5l1.3-1.5C10.6,9,10.8,9,11,9.1
		C11.1,9.2,11.1,9.5,11,9.7z M11,13.4l-1.6,1.7c-0.1,0.1-0.2,0.1-0.3,0.1c-0.1,0-0.2,0-0.2-0.1l-1-0.8c-0.2-0.1-0.2-0.4-0.1-0.5
		c0.1-0.2,0.4-0.2,0.5-0.1l0.7,0.5l1.3-1.5c0.1-0.2,0.4-0.2,0.5,0C11.1,13,11.1,13.2,11,13.4z M11,17l-1.6,1.7
		c-0.1,0.1-0.2,0.1-0.3,0.1c-0.1,0-0.2,0-0.2-0.1l-1-0.8c-0.2-0.1-0.2-0.4-0.1-0.5c0.1-0.2,0.4-0.2,0.5-0.1l0.7,0.5l1.3-1.5
		c0.1-0.2,0.4-0.2,0.5,0C11.1,16.6,11.1,16.8,11,17z M11,20.6l-1.6,1.7c-0.1,0.1-0.2,0.1-0.3,0.1c-0.1,0-0.2,0-0.2-0.1l-1-0.8
		c-0.2-0.1-0.2-0.4-0.1-0.5C8,20.9,8.3,20.9,8.4,21l0.7,0.5l1.3-1.5c0.1-0.2,0.4-0.2,0.5,0C11.1,20.2,11.1,20.4,11,20.6z"/>
</g>
</svg>
